# xmcd
#
# Track frame offsets:
#	150
#	20376
#	33034
#	48675
#	65976
#	76969
#	91312
#	115400
#	129441
#	151122
#	166320
#
# Disc length: 2375 seconds
# Revision: 0
# Processed by: cddbd v1.5.2PL0 Copyright (c) Steve Scherf et al.
# Submitted via: dBpowerAMP V12.0
#
DISCID=8609450b
DTITLE=Katy Guillen and the Girls - Remember What You Knew Before
DYEAR=2017
DGENRE=Blues
TTITLE0=Slingshot
TTITLE1=The Load
TTITLE2=Waiting Till the Day
TTITLE3=Gabriela
TTITLE4=Humbucker
TTITLE5=Can't Live Here Anymore
TTITLE6=Stalling on Dreams
TTITLE7=Biwi
TTITLE8=Quiver
TTITLE9=Funny Place
TTITLE10=If You Were Gone
EXTD=
EXTT0=
EXTT1=
EXTT2=
EXTT3=
EXTT4=
EXTT5=
EXTT6=
EXTT7=
EXTT8=
EXTT9=
EXTT10=
PLAYORDER=
